STARTFONT 2.1
COMMENT  
COMMENT  
COMMENT  
COMMENT  WARNING:  This bdf file was generated from a font server using
COMMENT  fstobdf.  The resulting font is subject to the same copyright,
COMMENT  license, and trademark restrictions as the original font.  The
COMMENT  authors and distributors of fstobdf disclaim all liability for
COMMENT  misuse of the program or its output.
COMMENT  
FONT -star division-starbats-medium-r-normal--25-240-75-75-p-0-stardivision-fontspecific
SIZE 24 75 75
FONTBOUNDINGBOX 26 29 0 -6
STARTPROPERTIES 60
FONT "-star division-starbats-medium-r-normal--25-240-75-75-p-0-stardivision-fontspecific"
FONT_TYPE "TrueType"
TECHNOLOGY "TrueType"
FOUNDRY ""
FAMILY_NAME "starbats"
WEIGHT_NAME "medium"
SLANT "r"
SETWIDTH_NAME "normal"
ADD_STYLE_NAME ""
PIXEL_SIZE 24
POINT_SIZE 240
RESOLUTION_X 75
RESOLUTION_Y 75
SPACING "p"
AVERAGE_WIDTH 150
CHARSET_REGISTRY "stardivision"
CHARSET_ENCODING "fontspecific"
AVG_LOWERCASE_WIDTH 21
RAW_AVG_LOWERCASE_WIDTH 831
SUBSCRIPT_X 0
SUBSCRIPT_Y 4
SUBSCRIPT_SIZE 4
RAW_SUBSCRIPT_X 0
RAW_SUBSCRIPT_Y 211
RAW_SUBSCRIPT_SIZE 180
SUPERSCRIPT_X 0
SUPERSCRIPT_Y 13
SUPERSCRIPT_SIZE 4
RAW_SUPERSCRIPT_X 0
RAW_SUPERSCRIPT_Y 539
RAW_SUPERSCRIPT_SIZE 180
STRIKEOUT_ASCENT 8
STRIKEOUT_DESCENT -5
RAW_STRIKEOUT_ASCENT 308
RAW_STRIKEOUT_DESCENT -258
RELATIVE_SETWIDTH 50
RELATIVE_WEIGHT 40
_GALLIUM_PANOSE "2 11 5 0 0 0 0 0 0 0"
UNDERLINE_POSITION 0
UNDERLINE_THICKNESS 0
RAW_UNDERLINE_POSITION 0
RAW_UNDERLINE_THICKNESS 0
ITALIC_ANGLE 0
NORM_SPACE 7
RAW_NORM_SPACE 280
CAP_HEIGHT 14
RAW_CAP_HEIGHT 557
X_HEIGHT 13
RAW_X_HEIGHT 520
RAW_PIXEL_SIZE 1000
RAW_POINT_SIZE 9636
FONT_ASCENT 22
FONT_DESCENT 5
RAW_ASCENT 898
RAW_DESCENT 212
RAW_AVERAGE_WIDTH 6513
COPYRIGHT ""
FACE_NAME "StarB TT"
NOTICE ""
DEFAULT_CHAR 0
ENDPROPERTIES
CHARS 224
STARTCHAR space
ENCODING 32
SWIDTH 280 0
DWIDTH 7 0
BBX 0 0 0 0
ATTRIBUTES 0117
BITMAP
ENDCHAR
STARTCHAR exclam
ENCODING 33
SWIDTH 840 0
DWIDTH 21 0
BBX 19 18 1 0
ATTRIBUTES 034c
BITMAP
07fc00
0c0600
180300
200080
6000c0
471c40
c71c60
800020
800020
800020
c80260
480240
440440
63f8c0
31f180
180300
0e0e00
03f800
ENDCHAR
STARTCHAR quotedbl
ENCODING 34
SWIDTH 760 0
DWIDTH 19 0
BBX 14 14 2 2
ATTRIBUTES 02ec
BITMAP
0fc0
1fe0
3ff0
7ff8
fffc
fffc
fffc
fffc
fffc
fffc
7ff8
3ff0
1fe0
0fc0
ENDCHAR
STARTCHAR numbersign
ENCODING 35
SWIDTH 960 0
DWIDTH 24 0
BBX 20 18 2 0
ATTRIBUTES 03b8
BITMAP
03e000
0e1c00
100700
200380
4001c0
4000e0
c000e0
8000f0
8000f0
8000f0
c000f0
4001f0
6001e0
2003e0
1807c0
0e3f80
03ff00
007c00
ENDCHAR
STARTCHAR dollar
ENCODING 36
SWIDTH 760 0
DWIDTH 19 0
BBX 14 14 2 2
ATTRIBUTES 02ec
BITMAP
fffc
fffc
fffc
fffc
fffc
fffc
fffc
fffc
fffc
fffc
fffc
fffc
fffc
fffc
ENDCHAR
STARTCHAR percent
ENCODING 37
SWIDTH 880 0
DWIDTH 22 0
BBX 18 18 2 0
ATTRIBUTES 037c
BITMAP
ffffc0
ffffc0
c000c0
c000c0
c000c0
c000c0
c000c0
c000c0
c000c0
c000c0
c000c0
c000c0
c000c0
c000c0
c000c0
c000c0
ffffc0
ffffc0
ENDCHAR
STARTCHAR ampersand
ENCODING 38
SWIDTH 880 0
DWIDTH 22 0
BBX 18 18 2 0
ATTRIBUTES 037c
BITMAP
ffffc0
ffffc0
ffffc0
ffffc0
f003c0
f003c0
f003c0
f003c0
f003c0
f003c0
f003c0
f003c0
f003c0
f003c0
ffffc0
ffffc0
ffffc0
ffffc0
ENDCHAR
STARTCHAR apostrophe
ENCODING 39
SWIDTH 880 0
DWIDTH 22 0
BBX 18 18 2 0
ATTRIBUTES 037c
BITMAP
ffff00
800380
8003c0
8003c0
8003c0
8003c0
8003c0
8003c0
8003c0
8003c0
8003c0
8003c0
8003c0
8003c0
ffffc0
ffffc0
7fffc0
3fffc0
ENDCHAR
STARTCHAR parenleft
ENCODING 40
SWIDTH 880 0
DWIDTH 22 0
BBX 18 18 2 0
ATTRIBUTES 037c
BITMAP
3fffc0
7fffc0
ffffc0
ffffc0
8003c0
8003c0
8003c0
8003c0
8003c0
8003c0
8003c0
8003c0
8003c0
8003c0
8003c0
8003c0
800380
ffff00
ENDCHAR
STARTCHAR parenright
ENCODING 41
SWIDTH 440 0
DWIDTH 11 0
BBX 6 10 2 4
ATTRIBUTES 01cb
BITMAP
10
30
78
78
fc
fc
78
78
30
10
ENDCHAR
STARTCHAR asterisk
ENCODING 42
SWIDTH 760 0
DWIDTH 19 0
BBX 14 20 2 -1
ATTRIBUTES 02ec
BITMAP
0100
0300
0780
0fc0
0fc0
1fe0
3ff0
3ff0
7ff8
fffc
fffc
7ff8
3ff0
3ff0
1fe0
0fc0
0fc0
0780
0300
0100
ENDCHAR
STARTCHAR plus
ENCODING 43
SWIDTH 1000 0
DWIDTH 25 0
BBX 20 20 2 -1
ATTRIBUTES 03db
BITMAP
006000
00f000
01f800
03fc00
07fe00
0fff00
1fff80
3fffc0
7fffe0
7fffe0
fffff0
7fffe0
3fffc0
1fff80
0fff00
07fe00
03fc00
01f800
00f000
006000
ENDCHAR
STARTCHAR comma
ENCODING 44
SWIDTH 880 0
DWIDTH 22 0
BBX 18 18 2 0
ATTRIBUTES 037c
BITMAP
00c000
01e000
03f000
07f800
03f000
09e200
18c600
3c0f00
7e1f80
fe1fc0
7c0f80
38c700
11e200
03f000
07f800
03f000
01e000
00c000
ENDCHAR
STARTCHAR minus
ENCODING 45
SWIDTH 560 0
DWIDTH 14 0
BBX 9 10 2 4
ATTRIBUTES 0244
BITMAP
0800
1c00
3e00
7f00
ff80
ff80
7f00
3e00
1c00
0800
ENDCHAR
STARTCHAR period
ENCODING 46
SWIDTH 960 0
DWIDTH 24 0
BBX 20 18 2 0
ATTRIBUTES 03b8
BITMAP
007c00
03ff00
0e3f80
1807c0
2003e0
6001e0
4001f0
c000f0
8000f0
8000f0
8000f0
c000e0
4000e0
4001c0
200380
100700
0e1c00
03e000
ENDCHAR
STARTCHAR slash
ENCODING 47
SWIDTH 800 0
DWIDTH 20 0
BBX 16 18 2 0
ATTRIBUTES 031b
BITMAP
8000
6000
5000
2c00
1300
10c0
0830
0808
0406
07fe
0ff8
0ff0
1fc0
1f00
3c00
7000
6000
8000
ENDCHAR
STARTCHAR 0
ENCODING 48
SWIDTH 960 0
DWIDTH 24 0
BBX 20 18 2 0
ATTRIBUTES 03d3
BITMAP
00f000
007800
003c00
001e00
000f00
000780
0003c0
0001e0
ffffe0
fffff0
0001e0
0003c0
000780
000f00
001e00
003c00
007800
00f000
ENDCHAR
STARTCHAR 1
ENCODING 49
SWIDTH 1080 0
DWIDTH 27 0
BBX 22 18 2 0
ATTRIBUTES 042b
BITMAP
01fc00
00fe00
007f00
003f80
001fc0
000fe0
0007f0
fffff8
fffff8
fffffc
fffff8
0007f0
000fe0
001fc0
003f80
007f00
00fe00
01fc00
ENDCHAR
STARTCHAR 2
ENCODING 50
SWIDTH 800 0
DWIDTH 20 0
BBX 17 16 2 3
ATTRIBUTES 0314
BITMAP
000080
000300
000600
000c00
001800
003000
006000
00e000
21c000
f38000
738000
3f0000
3e0000
1e0000
1c0000
080000
ENDCHAR
STARTCHAR 3
ENCODING 51
SWIDTH 880 0
DWIDTH 22 0
BBX 18 17 2 0
ATTRIBUTES 037c
BITMAP
ffffc0
ffffc0
c000c0
c200c0
c71cc0
c73cc0
c7f8c0
c3f0c0
c1e0c0
c1e0c0
c3f8c0
cfbec0
cf1cc0
c600c0
c000c0
ffffc0
ffffc0
ENDCHAR
STARTCHAR 4
ENCODING 52
SWIDTH 880 0
DWIDTH 22 0
BBX 19 19 2 0
ATTRIBUTES 037c
BITMAP
000020
ffffc0
ffffc0
c003c0
c006c0
c00cc0
c01cc0
c038c0
cc30c0
dc60c0
cee0c0
cfc0c0
c7c0c0
c780c0
c300c0
c200c0
c000c0
ffffc0
ffffc0
ENDCHAR
STARTCHAR 5
ENCODING 53
SWIDTH 880 0
DWIDTH 22 0
BBX 17 18 3 0
ATTRIBUTES 037c
BITMAP
07e000
1ff800
3ffc00
7ffe00
7fef00
ffe700
000380
000180
000080
000080
000180
000380
ffe700
7fef00
7ffe00
3ffc00
1ff800
07e000
ENDCHAR
STARTCHAR 6
ENCODING 54
SWIDTH 760 0
DWIDTH 19 0
BBX 18 9 0 2
ATTRIBUTES 0303
BITMAP
01f800
27ff00
5fffc0
7ff800
bff800
bff800
7ff800
4ff000
03c000
ENDCHAR
STARTCHAR 7
ENCODING 55
SWIDTH 680 0
DWIDTH 17 0
BBX 15 11 1 1
ATTRIBUTES 029f
BITMAP
0030
0360
05c0
0bc0
133e
1704
2d84
3e04
7404
7ffc
e00e
ENDCHAR
STARTCHAR 8
ENCODING 56
SWIDTH 720 0
DWIDTH 18 0
BBX 17 12 0 1
ATTRIBUTES 02e4
BITMAP
180000
640000
570000
b4c000
ab3000
888800
7c6400
221e00
198600
066900
011100
00ff80
ENDCHAR
STARTCHAR 9
ENCODING 57
SWIDTH 600 0
DWIDTH 15 0
BBX 13 13 1 0
ATTRIBUTES 0247
BITMAP
0018
0070
00e0
00e0
01c0
0380
0300
4600
ee00
fc00
f800
7800
7000
ENDCHAR
STARTCHAR colon
ENCODING 58
SWIDTH 640 0
DWIDTH 16 0
BBX 15 13 0 0
ATTRIBUTES 028f
BITMAP
0006
000e
001e
003c
7078
f0f0
f3e0
f7c0
ff80
ff00
fe00
7800
3000
ENDCHAR
STARTCHAR semicolon
ENCODING 59
SWIDTH 720 0
DWIDTH 18 0
BBX 16 16 1 2
ATTRIBUTES 02d8
BITMAP
07e0
1ff8
3ffc
7ffe
7ffe
ffff
ffff
ffff
ffff
ffff
ffff
7ffe
3ffc
3ffc
0ff0
07e0
ENDCHAR
STARTCHAR less
ENCODING 60
SWIDTH 640 0
DWIDTH 16 0
BBX 16 13 0 0
ATTRIBUTES 027c
BITMAP
0fe0
3018
400c
4006
8006
8007
8007
8007
8007
4006
200c
3018
0fe0
ENDCHAR
STARTCHAR equal
ENCODING 61
SWIDTH 560 0
DWIDTH 14 0
BBX 13 13 0 0
ATTRIBUTES 0230
BITMAP
fff8
fff8
fff8
fff8
fff8
fff8
fff8
fff8
fff8
fff8
fff8
fff8
fff8
ENDCHAR
STARTCHAR greater
ENCODING 62
SWIDTH 560 0
DWIDTH 14 0
BBX 13 13 0 0
ATTRIBUTES 0227
BITMAP
ffe0
8020
8038
8038
8038
8038
8038
8038
8038
8038
fff8
3ff8
3ff8
ENDCHAR
STARTCHAR question
ENCODING 63
SWIDTH 560 0
DWIDTH 14 0
BBX 13 13 0 0
ATTRIBUTES 0230
BITMAP
3ff8
7ff8
8038
8038
8038
8038
8038
8038
8038
8038
8038
8020
ffe0
ENDCHAR
STARTCHAR at
ENCODING 64
SWIDTH 560 0
DWIDTH 14 0
BBX 13 13 0 0
ATTRIBUTES 0227
BITMAP
3ff8
7ff8
8018
8018
8018
8018
8018
8018
8018
8018
8018
8010
ffe0
ENDCHAR
STARTCHAR A
ENCODING 65
SWIDTH 720 0
DWIDTH 18 0
BBX 13 14 4 3
ATTRIBUTES 02dc
BITMAP
0200
0700
0f80
1fc0
3fe0
7ff0
fff8
7ff0
3fe0
1fc0
1fc0
0f80
0700
0200
ENDCHAR
STARTCHAR B
ENCODING 66
SWIDTH 560 0
DWIDTH 14 0
BBX 14 13 0 0
ATTRIBUTES 0240
BITMAP
0300
0780
0fc0
1790
3330
7878
fcfc
7978
3330
0780
0780
0300
0100
ENDCHAR
STARTCHAR C
ENCODING 67
SWIDTH 440 0
DWIDTH 11 0
BBX 9 13 1 0
ATTRIBUTES 01a7
BITMAP
0800
1800
1c00
3e00
7f00
7f00
ff80
7f00
3e00
3e00
1c00
0800
0800
ENDCHAR
STARTCHAR D
ENCODING 68
SWIDTH 560 0
DWIDTH 14 0
BBX 14 13 0 0
ATTRIBUTES 0237
BITMAP
0300
0700
0300
0300
0300
713c
fffc
f17c
0300
0300
0300
0380
0300
ENDCHAR
STARTCHAR E
ENCODING 69
SWIDTH 560 0
DWIDTH 14 0
BBX 14 13 0 0
ATTRIBUTES 0240
BITMAP
0300
0780
0780
0300
2108
f33c
fffc
f13c
0100
0300
0780
0780
0300
ENDCHAR
STARTCHAR F
ENCODING 70
SWIDTH 560 0
DWIDTH 14 0
BBX 14 13 0 0
ATTRIBUTES 0237
BITMAP
0780
0780
0f80
0780
7338
fbfc
fffc
fb7c
7338
0780
0fc0
0780
0300
ENDCHAR
STARTCHAR G
ENCODING 71
SWIDTH 560 0
DWIDTH 14 0
BBX 14 13 0 0
ATTRIBUTES 0240
BITMAP
0300
0300
07c0
0780
3130
f13c
fffc
7978
3100
0780
0780
0300
0300
ENDCHAR
STARTCHAR H
ENCODING 72
SWIDTH 560 0
DWIDTH 14 0
BBX 13 13 0 0
ATTRIBUTES 021f
BITMAP
0200
2220
2220
1240
0a80
0700
fff8
0700
0a80
1240
2220
0200
0200
ENDCHAR
STARTCHAR I
ENCODING 73
SWIDTH 560 0
DWIDTH 14 0
BBX 14 13 0 0
ATTRIBUTES 0240
BITMAP
0100
2210
3220
0a40
0fc0
0780
fff8
0780
0fc0
1260
2220
0100
0100
ENDCHAR
STARTCHAR J
ENCODING 74
SWIDTH 560 0
DWIDTH 14 0
BBX 14 13 0 0
ATTRIBUTES 0240
BITMAP
0100
2310
1330
1de0
0f40
3fb0
e3f8
1f40
0aa0
1ed0
3330
2300
0100
ENDCHAR
STARTCHAR K
ENCODING 75
SWIDTH 520 0
DWIDTH 13 0
BBX 12 13 0 0
ATTRIBUTES 01fb
BITMAP
0400
0400
0600
c620
3fc0
1f80
0f00
3f80
77c0
c620
0400
0400
0400
ENDCHAR
STARTCHAR L
ENCODING 76
SWIDTH 560 0
DWIDTH 14 0
BBX 14 13 0 0
ATTRIBUTES 0237
BITMAP
0840
0cc0
0580
c784
7ff8
1fe0
0fc0
3ff0
7fb8
0780
0c80
08c0
0840
ENDCHAR
STARTCHAR M
ENCODING 77
SWIDTH 560 0
DWIDTH 14 0
BBX 14 13 0 0
ATTRIBUTES 0240
BITMAP
0840
0cc0
0fc0
fff8
3ff0
1fe0
1fe0
3ff0
7ff8
0fc0
0cc0
08c0
0840
ENDCHAR
STARTCHAR N
ENCODING 78
SWIDTH 600 0
DWIDTH 15 0
BBX 14 14 0 0
ATTRIBUTES 025c
BITMAP
0100
0940
0b40
0fc0
3ff0
1fe0
1fe0
7ff8
1fe0
3ff0
6fc8
0b40
0920
0920
ENDCHAR
STARTCHAR O
ENCODING 79
SWIDTH 480 0
DWIDTH 12 0
BBX 11 15 0 -2
ATTRIBUTES 01df
BITMAP
0060
18c0
19c0
1f80
0f00
0e00
0e00
1f00
1f00
3b80
7180
7180
e000
c000
4000
ENDCHAR
STARTCHAR P
ENCODING 80
SWIDTH 520 0
DWIDTH 13 0
BBX 11 13 1 0
ATTRIBUTES 0204
BITMAP
2040
70e0
71c0
3bc0
3f80
1f00
1e00
3f00
7f00
7f80
f780
e380
4000
ENDCHAR
STARTCHAR Q
ENCODING 81
SWIDTH 600 0
DWIDTH 15 0
BBX 15 14 0 0
ATTRIBUTES 0247
BITMAP
07c0
0440
0540
0540
1d70
e10e
bffa
bffa
8102
fd7e
0540
0540
0540
07c0
ENDCHAR
STARTCHAR R
ENCODING 82
SWIDTH 600 0
DWIDTH 15 0
BBX 13 13 1 0
ATTRIBUTES 0247
BITMAP
0f80
0f80
0f80
0f80
fff8
fff8
fff8
fff8
fff8
0f80
0f80
0f80
0f80
ENDCHAR
STARTCHAR S
ENCODING 83
SWIDTH 600 0
DWIDTH 15 0
BBX 13 13 1 0
ATTRIBUTES 0247
BITMAP
0700
0700
0700
0700
0700
07f8
fff8
ff00
0700
0700
0700
0700
0700
ENDCHAR
STARTCHAR T
ENCODING 84
SWIDTH 560 0
DWIDTH 14 0
BBX 14 13 0 0
ATTRIBUTES 0237
BITMAP
0780
0780
0780
0780
fffc
f87c
f87c
f87c
0780
0780
0780
0780
0780
ENDCHAR
STARTCHAR U
ENCODING 85
SWIDTH 640 0
DWIDTH 16 0
BBX 15 13 0 0
ATTRIBUTES 0273
BITMAP
0100
0100
0300
0300
0380
7efc
1c70
0c40
0c40
0fe0
0ce0
1830
1010
ENDCHAR
STARTCHAR V
ENCODING 86
SWIDTH 600 0
DWIDTH 15 0
BBX 15 13 0 0
ATTRIBUTES 026c
BITMAP
0100
0280
0280
0280
1e60
639c
37d8
1ff0
0ba0
0920
0b90
1c50
1830
ENDCHAR
STARTCHAR W
ENCODING 87
SWIDTH 600 0
DWIDTH 15 0
BBX 14 13 0 0
ATTRIBUTES 024f
BITMAP
0100
0300
0580
0780
3b70
7fec
2fd0
17a0
17a0
16e0
1b60
1ca0
1070
ENDCHAR
STARTCHAR X
ENCODING 88
SWIDTH 600 0
DWIDTH 15 0
BBX 14 13 0 0
ATTRIBUTES 024f
BITMAP
0100
0300
0300
0580
1df0
631c
37b0
1b60
0fe0
15a0
17a0
1c60
1020
ENDCHAR
STARTCHAR Y
ENCODING 89
SWIDTH 600 0
DWIDTH 15 0
BBX 15 13 0 0
ATTRIBUTES 025f
BITMAP
0100
0180
0280
0280
0280
7cfc
23f8
1ae0
0ea0
0dd0
0e70
1830
1008
ENDCHAR
STARTCHAR Z
ENCODING 90
SWIDTH 680 0
DWIDTH 17 0
BBX 17 14 0 0
ATTRIBUTES 02a8
BITMAP
01c000
02c000
02e000
02e000
027000
7c0f80
200f00
101c00
083800
083800
091800
17dc00
1f3c00
1c1c00
ENDCHAR
STARTCHAR bracketleft
ENCODING 91
SWIDTH 280 0
DWIDTH 7 0
BBX 5 23 1 -5
ATTRIBUTES 0117
BITMAP
f8
f8
c0
c0
c0
c0
c0
c0
c0
c0
c0
c0
c0
c0
c0
c0
c0
c0
c0
c0
c0
f8
f8
ENDCHAR
STARTCHAR backslash
ENCODING 92
SWIDTH 880 0
DWIDTH 22 0
BBX 18 18 2 0
ATTRIBUTES 037c
BITMAP
03f000
0ffc00
1ffe00
3fff00
7e1f80
7ccf80
7def80
f9e7c0
f9e7c0
f9e7c0
f9e7c0
79e780
7def80
7ccf80
3e1f00
1ffe00
0ffc00
03f000
ENDCHAR
STARTCHAR bracketright
ENCODING 93
SWIDTH 880 0
DWIDTH 22 0
BBX 18 18 2 0
ATTRIBUTES 037c
BITMAP
03f000
0ffc00
1ffe00
3c3f00
7c3f80
7f3f80
7f3f80
ff3fc0
ff3fc0
ff3fc0
ff3fc0
7f3f80
7f3f80
7f3f80
3f3f00
1ffe00
0ffc00
03f000
ENDCHAR
STARTCHAR asciicircum
ENCODING 94
SWIDTH 880 0
DWIDTH 22 0
BBX 18 18 2 0
ATTRIBUTES 037c
BITMAP
03f000
0ffc00
1ffe00
3fff00
7c1f80
7dc780
7fe780
ffe7c0
ffcfc0
ff9fc0
ff3fc0
7e7f80
7cff80
7c0780
3fff00
1ffe00
0ffc00
03f000
ENDCHAR
STARTCHAR underscore
ENCODING 95
SWIDTH 880 0
DWIDTH 22 0
BBX 18 18 2 0
ATTRIBUTES 037c
BITMAP
03f000
0ffc00
1ffe00
3fff00
7c0f80
7de780
7fe780
ffcfc0
fe1fc0
ffcfc0
ffe7c0
7fe780
7fe780
7dc780
3c1f00
1ffe00
0ffc00
03f000
ENDCHAR
STARTCHAR grave
ENCODING 96
SWIDTH 880 0
DWIDTH 22 0
BBX 18 18 2 0
ATTRIBUTES 037c
BITMAP
03f000
0ffc00
1ffe00
3f9f00
7f1f80
7e9f80
7e9f80
fc9fc0
f99fc0
f39fc0
f00fc0
7f9f80
7f9f80
7f9f80
3f9f00
1ffe00
0ffc00
03f000
ENDCHAR
STARTCHAR a
ENCODING 97
SWIDTH 880 0
DWIDTH 22 0
BBX 18 18 2 0
ATTRIBUTES 037c
BITMAP
03f000
0ffc00
1ffe00
3fff00
7e0780
7eff80
7eff80
feffc0
fe1fc0
ffcfc0
ffe7c0
7fe780
7fe780
7fcf80
3e1f00
1ffe00
0ffc00
03f000
ENDCHAR
STARTCHAR b
ENCODING 98
SWIDTH 880 0
DWIDTH 22 0
BBX 18 18 2 0
ATTRIBUTES 037c
BITMAP
03f000
0ffc00
1ffe00
3fff00
7f0780
7cf780
7cff80
f9ffc0
f91fc0
f8cfc0
f9e7c0
79e780
7de780
7ccf80
3e1f00
1ffe00
0ffc00
03f000
ENDCHAR
STARTCHAR c
ENCODING 99
SWIDTH 880 0
DWIDTH 22 0
BBX 18 18 2 0
ATTRIBUTES 037c
BITMAP
03f000
0ffc00
1ffe00
3fff00
780780
7fe780
ffcfc0
ffcfc0
ff9fc0
ffbfc0
ff3fc0
fe7fc0
7e7f80
7c7f80
3c7f00
1ffe00
0ffc00
03f000
ENDCHAR
STARTCHAR d
ENCODING 100
SWIDTH 880 0
DWIDTH 22 0
BBX 18 18 2 0
ATTRIBUTES 037c
BITMAP
03f000
0ffc00
1ffe00
3fff00
7e0f80
7ce780
7ce780
fc47c0
fe0fc0
fe0fc0
fcc7c0
79e780
79e780
78cf80
3e1f00
1ffe00
0ffc00
03f000
ENDCHAR
STARTCHAR e
ENCODING 101
SWIDTH 880 0
DWIDTH 22 0
BBX 18 18 2 0
ATTRIBUTES 037c
BITMAP
03f000
0ffc00
1ffe00
3fff00
7e1f80
7dcf80
79ef80
f9e7c0
fcc7c0
fe27c0
ffe7c0
7fe780
7fcf80
7dcf80
3c3f00
1ffe00
0ffc00
03f000
ENDCHAR
STARTCHAR f
ENCODING 102
SWIDTH 880 0
DWIDTH 22 0
BBX 18 18 2 0
ATTRIBUTES 037c
BITMAP
01f000
0ffc00
1ffe00
3fff00
61c380
7999c0
79bdc0
f93cc0
f93cc0
f93cc0
f93cc0
793cc0
79bdc0
799980
39c300
1ffe00
0ffc00
01f000
ENDCHAR
STARTCHAR g
ENCODING 103
SWIDTH 880 0
DWIDTH 22 0
BBX 18 17 2 0
ATTRIBUTES 037c
BITMAP
07f800
0c0c00
31e300
233100
421080
c618c0
861840
861840
861840
861840
c618c0
c210c0
633180
31e300
1c0f00
0ffc00
03f000
ENDCHAR
STARTCHAR h
ENCODING 104
SWIDTH 880 0
DWIDTH 22 0
BBX 18 18 2 0
ATTRIBUTES 037c
BITMAP
03f000
0e1c00
180600
21c100
61c180
40c080
c0c0c0
c0c0c0
80c040
80c040
80c040
c0c0c0
40c080
60c180
20c100
18c600
0c0c00
03f000
ENDCHAR
STARTCHAR i
ENCODING 105
SWIDTH 880 0
DWIDTH 22 0
BBX 18 17 2 0
ATTRIBUTES 037c
BITMAP
07f800
0c0c00
19c700
233100
601180
401080
c010c0
803040
806040
80c040
c180c0
410080
630080
23f100
180200
0c0c00
03f000
ENDCHAR
STARTCHAR j
ENCODING 106
SWIDTH 880 0
DWIDTH 22 0
BBX 18 17 2 0
ATTRIBUTES 037c
BITMAP
07f800
0c0c00
31e300
23f100
401880
c010c0
803040
81c040
803040
801840
c018c0
c218c0
63f180
33e300
1c0f00
0ffc00
03f000
ENDCHAR
STARTCHAR k
ENCODING 107
SWIDTH 880 0
DWIDTH 22 0
BBX 18 18 2 0
ATTRIBUTES 037c
BITMAP
07f800
0c0c00
386700
206100
60a180
c1a0c0
812040
822040
862040
8c2040
8ff840
802040
4020c0
602180
202100
180600
0c0c00
03f000
ENDCHAR
STARTCHAR l
ENCODING 108
SWIDTH 880 0
DWIDTH 22 0
BBX 18 18 2 0
ATTRIBUTES 037c
BITMAP
07f800
0c0c00
33fb00
23f900
43f880
c200c0
820040
83c040
83f040
803840
801840
c018c0
4018c0
603180
33e300
1c0e00
0ffc00
03f000
ENDCHAR
STARTCHAR m
ENCODING 109
SWIDTH 880 0
DWIDTH 22 0
BBX 18 17 2 0
ATTRIBUTES 037c
BITMAP
07f800
0c0c00
30e300
23f100
430080
c700c0
86e040
87f040
873840
861840
c618c0
c218c0
633180
31e300
1c0f00
0ffc00
03f000
ENDCHAR
STARTCHAR n
ENCODING 110
SWIDTH 880 0
DWIDTH 22 0
BBX 18 18 2 0
ATTRIBUTES 037c
BITMAP
07f800
0c0c00
180600
23f900
601980
401080
c030c0
802040
806040
80c040
c080c0
c080c0
618180
610180
3b0700
1c0e00
0ffc00
03f000
ENDCHAR
STARTCHAR o
ENCODING 111
SWIDTH 880 0
DWIDTH 22 0
BBX 17 17 3 0
ATTRIBUTES 037c
BITMAP
07f000
0c1800
31c600
266300
442100
c42180
834080
838080
86e080
847080
c43180
c43180
666300
31c600
3c1e00
0ff800
03e000
ENDCHAR
STARTCHAR p
ENCODING 112
SWIDTH 880 0
DWIDTH 22 0
BBX 18 17 2 0
ATTRIBUTES 037c
BITMAP
07f800
0c0c00
31e300
23f100
473080
c618c0
861840
861840
873840
83d840
c1d8c0
c030c0
602180
33c300
1c0f00
0ffc00
03f000
ENDCHAR
STARTCHAR q
ENCODING 113
SWIDTH 880 0
DWIDTH 22 0
BBX 18 17 2 0
ATTRIBUTES 037c
BITMAP
07f800
0c0c00
3e3b00
266d00
464480
c6c6c0
86c640
86c640
86c640
86c640
c6c6c0
c644c0
666d80
363b00
1c0f00
0ffc00
03f000
ENDCHAR
STARTCHAR r
ENCODING 114
SWIDTH 1040 0
DWIDTH 26 0
BBX 24 19 1 0
ATTRIBUTES 0410
BITMAP
fffffe
c00007
c00007
c7ffc7
c00007
c00007
c00007
c00007
c00007
c00007
c00007
c00007
c00007
c00007
c00007
c00007
ffffff
ffffff
7fffff
ENDCHAR
STARTCHAR s
ENCODING 115
SWIDTH 1080 0
DWIDTH 27 0
BBX 25 22 1 1
ATTRIBUTES 042f
BITMAP
00000000
10020000
10020000
20020000
e003ff80
e0038080
e0039e80
e0039e80
e0039e80
ffff9e80
e31f9e80
e31f9e80
e31f9e80
e31f9e80
ffff9e80
e31f9e80
e31f9e80
e31f9e80
e31f9e80
ffff9e80
ffff8080
ffffff80
ENDCHAR
STARTCHAR t
ENCODING 116
SWIDTH 1040 0
DWIDTH 26 0
BBX 24 19 1 1
ATTRIBUTES 041a
BITMAP
07ffe0
3ffffc
7ffffe
7fffff
ff81ff
fc813f
00ff00
f9ff9f
03c3c0
0381c0
0300e0
0700e0
0700e0
0781e0
0fc3f0
0ffff0
0ffff0
0ffff0
0ffff0
ENDCHAR
STARTCHAR u
ENCODING 117
SWIDTH 560 0
DWIDTH 14 0
BBX 10 13 2 0
ATTRIBUTES 022c
BITMAP
c0c0
c0c0
c0c0
c0c0
c0c0
c0c0
c0c0
c0c0
c0c0
c0c0
e1c0
7fc0
3ec0
ENDCHAR
STARTCHAR v
ENCODING 118
SWIDTH 480 0
DWIDTH 12 0
BBX 11 13 0 0
ATTRIBUTES 01f4
BITMAP
c060
60c0
60c0
60c0
3180
3180
3180
1b00
1b00
1b00
0e00
0e00
0e00
ENDCHAR
STARTCHAR w
ENCODING 119
SWIDTH 720 0
DWIDTH 18 0
BBX 18 13 0 0
ATTRIBUTES 02d4
BITMAP
c0c0c0
e0e1c0
61e180
61e180
71e380
333300
333300
333300
1b3600
1e1e00
1e1e00
0e1c00
0c1c00
ENDCHAR
STARTCHAR x
ENCODING 120
SWIDTH 480 0
DWIDTH 12 0
BBX 11 13 0 0
ATTRIBUTES 01f4
BITMAP
60c0
71c0
3180
1b00
1f00
0e00
0e00
1e00
1b00
3b80
3180
60c0
e0e0
ENDCHAR
STARTCHAR y
ENCODING 121
SWIDTH 480 0
DWIDTH 12 0
BBX 11 18 0 -5
ATTRIBUTES 01f4
BITMAP
c060
e0e0
60c0
60c0
3180
3180
3180
1b00
1b00
1b00
0e00
0e00
0e00
0c00
0c00
1800
7800
7000
ENDCHAR
STARTCHAR z
ENCODING 122
SWIDTH 480 0
DWIDTH 12 0
BBX 11 13 0 0
ATTRIBUTES 01f4
BITMAP
ffe0
ffe0
01c0
0380
0300
0600
0e00
1c00
3800
7000
6000
ffe0
ffe0
ENDCHAR
STARTCHAR braceleft
ENCODING 123
SWIDTH 320 0
DWIDTH 8 0
BBX 7 23 0 -5
ATTRIBUTES 014f
BITMAP
0e
1e
18
18
18
18
30
30
30
30
e0
c0
e0
30
30
30
30
18
18
18
18
1e
0e
ENDCHAR
STARTCHAR bar
ENCODING 124
SWIDTH 240 0
DWIDTH 6 0
BBX 2 23 2 -5
ATTRIBUTES 0103
BITMAP
c0
c0
c0
c0
c0
c0
c0
c0
c0
c0
c0
c0
c0
c0
c0
c0
c0
c0
c0
c0
c0
c0
c0
ENDCHAR
STARTCHAR braceright
ENCODING 125
SWIDTH 320 0
DWIDTH 8 0
BBX 7 23 0 -5
ATTRIBUTES 014f
BITMAP
e0
f0
30
30
30
30
18
18
18
18
0e
06
0e
18
18
18
18
30
30
30
30
f0
e0
ENDCHAR
STARTCHAR asciitilde
ENCODING 126
SWIDTH 600 0
DWIDTH 15 0
BBX 12 4 2 7
ATTRIBUTES 0247
BITMAP
3810
fe30
fff0
83e0
ENDCHAR
STARTCHAR C000177
ENCODING 127
SWIDTH 520 0
DWIDTH 13 0
BBX 12 12 0 0
ATTRIBUTES 01f7
BITMAP
fff0
8010
8010
8010
8010
8010
8010
8010
8010
8010
8010
fff0
ENDCHAR
STARTCHAR C000200
ENCODING 128
SWIDTH 760 0
DWIDTH 19 0
BBX 13 16 3 0
ATTRIBUTES 02ee
BITMAP
fff8
8008
8008
8008
8008
8008
8008
8008
8008
8008
8008
8008
8008
8008
8008
fff8
ENDCHAR
STARTCHAR C000201
ENCODING 129
SWIDTH 760 0
DWIDTH 19 0
BBX 13 16 3 0
ATTRIBUTES 02ee
BITMAP
fff8
8008
8008
8008
8008
8008
8008
8008
8008
8008
8008
8008
8008
8008
8008
fff8
ENDCHAR
STARTCHAR C000202
ENCODING 130
SWIDTH 760 0
DWIDTH 19 0
BBX 13 16 3 0
ATTRIBUTES 02ee
BITMAP
fff8
8008
8008
8008
8008
8008
8008
8008
8008
8008
8008
8008
8008
8008
8008
fff8
ENDCHAR
STARTCHAR C000203
ENCODING 131
SWIDTH 760 0
DWIDTH 19 0
BBX 13 16 3 0
ATTRIBUTES 02ee
BITMAP
fff8
8008
8008
8008
8008
8008
8008
8008
8008
8008
8008
8008
8008
8008
8008
fff8
ENDCHAR
STARTCHAR C000204
ENCODING 132
SWIDTH 760 0
DWIDTH 19 0
BBX 13 16 3 0
ATTRIBUTES 02ee
BITMAP
fff8
8008
8008
8008
8008
8008
8008
8008
8008
8008
8008
8008
8008
8008
8008
fff8
ENDCHAR
STARTCHAR C000205
ENCODING 133
SWIDTH 760 0
DWIDTH 19 0
BBX 13 16 3 0
ATTRIBUTES 02ee
BITMAP
fff8
8008
8008
8008
8008
8008
8008
8008
8008
8008
8008
8008
8008
8008
8008
fff8
ENDCHAR
STARTCHAR C000206
ENCODING 134
SWIDTH 760 0
DWIDTH 19 0
BBX 13 16 3 0
ATTRIBUTES 02ee
BITMAP
fff8
8008
8008
8008
8008
8008
8008
8008
8008
8008
8008
8008
8008
8008
8008
fff8
ENDCHAR
STARTCHAR C000207
ENCODING 135
SWIDTH 760 0
DWIDTH 19 0
BBX 13 16 3 0
ATTRIBUTES 02ee
BITMAP
fff8
8008
8008
8008
8008
8008
8008
8008
8008
8008
8008
8008
8008
8008
8008
fff8
ENDCHAR
STARTCHAR C000210
ENCODING 136
SWIDTH 760 0
DWIDTH 19 0
BBX 13 16 3 0
ATTRIBUTES 02ee
BITMAP
fff8
8008
8008
8008
8008
8008
8008
8008
8008
8008
8008
8008
8008
8008
8008
fff8
ENDCHAR
STARTCHAR C000211
ENCODING 137
SWIDTH 760 0
DWIDTH 19 0
BBX 13 16 3 0
ATTRIBUTES 02ee
BITMAP
fff8
8008
8008
8008
8008
8008
8008
8008
8008
8008
8008
8008
8008
8008
8008
fff8
ENDCHAR
STARTCHAR C000212
ENCODING 138
SWIDTH 760 0
DWIDTH 19 0
BBX 13 16 3 0
ATTRIBUTES 02ee
BITMAP
fff8
8008
8008
8008
8008
8008
8008
8008
8008
8008
8008
8008
8008
8008
8008
fff8
ENDCHAR
STARTCHAR C000213
ENCODING 139
SWIDTH 760 0
DWIDTH 19 0
BBX 13 16 3 0
ATTRIBUTES 02ee
BITMAP
fff8
8008
8008
8008
8008
8008
8008
8008
8008
8008
8008
8008
8008
8008
8008
fff8
ENDCHAR
STARTCHAR C000214
ENCODING 140
SWIDTH 760 0
DWIDTH 19 0
BBX 13 16 3 0
ATTRIBUTES 02ee
BITMAP
fff8
8008
8008
8008
8008
8008
8008
8008
8008
8008
8008
8008
8008
8008
8008
fff8
ENDCHAR
STARTCHAR C000215
ENCODING 141
SWIDTH 760 0
DWIDTH 19 0
BBX 13 16 3 0
ATTRIBUTES 02ee
BITMAP
fff8
8008
8008
8008
8008
8008
8008
8008
8008
8008
8008
8008
8008
8008
8008
fff8
ENDCHAR
STARTCHAR C000216
ENCODING 142
SWIDTH 760 0
DWIDTH 19 0
BBX 13 16 3 0
ATTRIBUTES 02ee
BITMAP
fff8
8008
8008
8008
8008
8008
8008
8008
8008
8008
8008
8008
8008
8008
8008
fff8
ENDCHAR
STARTCHAR C000217
ENCODING 143
SWIDTH 760 0
DWIDTH 19 0
BBX 13 16 3 0
ATTRIBUTES 02ee
BITMAP
fff8
8008
8008
8008
8008
8008
8008
8008
8008
8008
8008
8008
8008
8008
8008
fff8
ENDCHAR
STARTCHAR C000220
ENCODING 144
SWIDTH 760 0
DWIDTH 19 0
BBX 13 16 3 0
ATTRIBUTES 02ee
BITMAP
fff8
8008
8008
8008
8008
8008
8008
8008
8008
8008
8008
8008
8008
8008
8008
fff8
ENDCHAR
STARTCHAR C000221
ENCODING 145
SWIDTH 760 0
DWIDTH 19 0
BBX 13 16 3 0
ATTRIBUTES 02ee
BITMAP
fff8
8008
8008
8008
8008
8008
8008
8008
8008
8008
8008
8008
8008
8008
8008
fff8
ENDCHAR
STARTCHAR C000222
ENCODING 146
SWIDTH 760 0
DWIDTH 19 0
BBX 13 16 3 0
ATTRIBUTES 02ee
BITMAP
fff8
8008
8008
8008
8008
8008
8008
8008
8008
8008
8008
8008
8008
8008
8008
fff8
ENDCHAR
STARTCHAR C000223
ENCODING 147
SWIDTH 760 0
DWIDTH 19 0
BBX 13 16 3 0
ATTRIBUTES 02ee
BITMAP
fff8
8008
8008
8008
8008
8008
8008
8008
8008
8008
8008
8008
8008
8008
8008
fff8
ENDCHAR
STARTCHAR C000224
ENCODING 148
SWIDTH 760 0
DWIDTH 19 0
BBX 13 16 3 0
ATTRIBUTES 02ee
BITMAP
fff8
8008
8008
8008
8008
8008
8008
8008
8008
8008
8008
8008
8008
8008
8008
fff8
ENDCHAR
STARTCHAR C000225
ENCODING 149
SWIDTH 760 0
DWIDTH 19 0
BBX 13 16 3 0
ATTRIBUTES 02ee
BITMAP
fff8
8008
8008
8008
8008
8008
8008
8008
8008
8008
8008
8008
8008
8008
8008
fff8
ENDCHAR
STARTCHAR C000226
ENCODING 150
SWIDTH 760 0
DWIDTH 19 0
BBX 13 16 3 0
ATTRIBUTES 02ee
BITMAP
fff8
8008
8008
8008
8008
8008
8008
8008
8008
8008
8008
8008
8008
8008
8008
fff8
ENDCHAR
STARTCHAR C000227
ENCODING 151
SWIDTH 760 0
DWIDTH 19 0
BBX 13 16 3 0
ATTRIBUTES 02ee
BITMAP
fff8
8008
8008
8008
8008
8008
8008
8008
8008
8008
8008
8008
8008
8008
8008
fff8
ENDCHAR
STARTCHAR C000230
ENCODING 152
SWIDTH 760 0
DWIDTH 19 0
BBX 13 16 3 0
ATTRIBUTES 02ee
BITMAP
fff8
8008
8008
8008
8008
8008
8008
8008
8008
8008
8008
8008
8008
8008
8008
fff8
ENDCHAR
STARTCHAR C000231
ENCODING 153
SWIDTH 760 0
DWIDTH 19 0
BBX 13 16 3 0
ATTRIBUTES 02ee
BITMAP
fff8
8008
8008
8008
8008
8008
8008
8008
8008
8008
8008
8008
8008
8008
8008
fff8
ENDCHAR
STARTCHAR C000232
ENCODING 154
SWIDTH 760 0
DWIDTH 19 0
BBX 13 16 3 0
ATTRIBUTES 02ee
BITMAP
fff8
8008
8008
8008
8008
8008
8008
8008
8008
8008
8008
8008
8008
8008
8008
fff8
ENDCHAR
STARTCHAR C000233
ENCODING 155
SWIDTH 760 0
DWIDTH 19 0
BBX 13 16 3 0
ATTRIBUTES 02ee
BITMAP
fff8
8008
8008
8008
8008
8008
8008
8008
8008
8008
8008
8008
8008
8008
8008
fff8
ENDCHAR
STARTCHAR C000234
ENCODING 156
SWIDTH 760 0
DWIDTH 19 0
BBX 13 16 3 0
ATTRIBUTES 02ee
BITMAP
fff8
8008
8008
8008
8008
8008
8008
8008
8008
8008
8008
8008
8008
8008
8008
fff8
ENDCHAR
STARTCHAR C000235
ENCODING 157
SWIDTH 760 0
DWIDTH 19 0
BBX 13 16 3 0
ATTRIBUTES 02ee
BITMAP
fff8
8008
8008
8008
8008
8008
8008
8008
8008
8008
8008
8008
8008
8008
8008
fff8
ENDCHAR
STARTCHAR C000236
ENCODING 158
SWIDTH 760 0
DWIDTH 19 0
BBX 13 16 3 0
ATTRIBUTES 02ee
BITMAP
fff8
8008
8008
8008
8008
8008
8008
8008
8008
8008
8008
8008
8008
8008
8008
fff8
ENDCHAR
STARTCHAR C000237
ENCODING 159
SWIDTH 760 0
DWIDTH 19 0
BBX 13 16 3 0
ATTRIBUTES 02ee
BITMAP
fff8
8008
8008
8008
8008
8008
8008
8008
8008
8008
8008
8008
8008
8008
8008
fff8
ENDCHAR
STARTCHAR nobreakspace
ENCODING 160
SWIDTH 280 0
DWIDTH 7 0
BBX 0 0 0 0
ATTRIBUTES 0117
BITMAP
ENDCHAR
STARTCHAR exclamdown
ENCODING 161
SWIDTH 320 0
DWIDTH 8 0
BBX 2 18 3 -5
ATTRIBUTES 014c
BITMAP
c0
c0
c0
00
c0
c0
c0
c0
c0
c0
c0
c0
c0
c0
c0
c0
c0
c0
ENDCHAR
STARTCHAR cent
ENCODING 162
SWIDTH 560 0
DWIDTH 14 0
BBX 10 23 3 -5
ATTRIBUTES 022c
BITMAP
0100
0100
0100
0100
0300
1f00
7f80
6380
66c0
c400
c400
cc00
c800
c8c0
68c0
7980
3f80
1e00
1000
3000
2000
2000
2000
ENDCHAR
STARTCHAR sterling
ENCODING 163
SWIDTH 560 0
DWIDTH 14 0
BBX 12 18 1 0
ATTRIBUTES 022c
BITMAP
0f80
1fc0
3860
3060
7060
7000
3000
3000
ff00
ff00
3800
1800
3000
3000
2000
ff20
fff0
41e0
ENDCHAR
STARTCHAR currency
ENCODING 164
SWIDTH 560 0
DWIDTH 14 0
BBX 11 12 2 3
ATTRIBUTES 022c
BITMAP
4040
ce60
7fc0
3180
60c0
60c0
60c0
60c0
71c0
7fc0
ffe0
4040
ENDCHAR
STARTCHAR yen
ENCODING 165
SWIDTH 560 0
DWIDTH 14 0
BBX 13 18 0 0
ATTRIBUTES 022c
BITMAP
c038
6030
6070
3060
30e0
18c0
19c0
0d80
0d80
7ff0
7ff0
0700
7ff0
7ff0
0700
0700
0700
0700
ENDCHAR
STARTCHAR brokenbar
ENCODING 166
SWIDTH 240 0
DWIDTH 6 0
BBX 2 23 2 -5
ATTRIBUTES 0103
BITMAP
c0
c0
c0
c0
c0
c0
c0
c0
c0
c0
00
00
00
00
c0
c0
c0
c0
c0
c0
c0
c0
c0
ENDCHAR
STARTCHAR section
ENCODING 167
SWIDTH 560 0
DWIDTH 14 0
BBX 11 23 2 -5
ATTRIBUTES 022c
BITMAP
1f00
3f80
7180
61c0
60c0
3000
3c00
7e00
4700
c3c0
c1c0
e060
7060
3860
1ec0
0f80
0380
01c0
60c0
60c0
70c0
3f80
1f00
ENDCHAR
STARTCHAR diaeresis
ENCODING 168
SWIDTH 320 0
DWIDTH 8 0
BBX 6 3 1 15
ATTRIBUTES 014c
BITMAP
cc
cc
cc
ENDCHAR
STARTCHAR copyright
ENCODING 169
SWIDTH 720 0
DWIDTH 18 0
BBX 19 18 -1 0
ATTRIBUTES 02df
BITMAP
002000
03fc00
0f0f00
180180
30f0c0
639840
620c60
460060
460060
460060
460460
620c60
63f840
30f0c0
180180
0f0f00
07fc00
002000
ENDCHAR
STARTCHAR ordfeminine
ENCODING 170
SWIDTH 360 0
DWIDTH 9 0
BBX 7 8 1 10
ATTRIBUTES 0174
BITMAP
7c
44
06
3e
fe
c6
ce
7e
ENDCHAR
STARTCHAR guillemotleft
ENCODING 171
SWIDTH 560 0
DWIDTH 14 0
BBX 10 11 2 1
ATTRIBUTES 022c
BITMAP
0000
c000
8000
8040
0040
00c0
0040
0040
0000
8000
8000
ENDCHAR
STARTCHAR notsign
ENCODING 172
SWIDTH 600 0
DWIDTH 15 0
BBX 11 7 2 5
ATTRIBUTES 0247
BITMAP
c0e0
e0e0
e000
6000
6000
6000
6000
ENDCHAR
STARTCHAR hyphen
ENCODING 173
SWIDTH 320 0
DWIDTH 8 0
BBX 7 3 0 5
ATTRIBUTES 014c
BITMAP
60
fe
fe
ENDCHAR
STARTCHAR registered
ENCODING 174
SWIDTH 720 0
DWIDTH 18 0
BBX 18 17 0 0
ATTRIBUTES 02df
BITMAP
fe0040
0007c0
001e00
003800
0037c0
806600
806600
c047c0
c046c0
c04640
c04600
c06600
806600
803000
001800
000f00
0003c0
ENDCHAR
STARTCHAR macron
ENCODING 175
SWIDTH 560 0
DWIDTH 14 0
BBX 14 2 0 19
ATTRIBUTES 0227
BITMAP
00fc
fcfc
ENDCHAR
STARTCHAR degree
ENCODING 176
SWIDTH 400 0
DWIDTH 10 0
BBX 6 6 2 12
ATTRIBUTES 018f
BITMAP
fc
78
cc
84
84
cc
ENDCHAR
STARTCHAR plusminus
ENCODING 177
SWIDTH 560 0
DWIDTH 14 0
BBX 11 15 2 0
ATTRIBUTES 0223
BITMAP
7800
0000
0000
0000
0000
00e0
e0e0
e000
0000
0000
0000
0000
0000
00e0
e0e0
ENDCHAR
STARTCHAR twosuperior
ENCODING 178
SWIDTH 320 0
DWIDTH 8 0
BBX 7 9 0 9
ATTRIBUTES 014c
BITMAP
e0
38
6e
c6
06
0c
18
30
60
ENDCHAR
STARTCHAR threesuperior
ENCODING 179
SWIDTH 320 0
DWIDTH 8 0
BBX 7 9 0 9
ATTRIBUTES 014c
BITMAP
fe
78
6c
26
0c
1c
06
06
ce
ENDCHAR
STARTCHAR acute
ENCODING 180
SWIDTH 320 0
DWIDTH 8 0
BBX 4 3 3 15
ATTRIBUTES 014c
BITMAP
70
70
60
ENDCHAR
STARTCHAR mu
ENCODING 181
SWIDTH 560 0
DWIDTH 14 0
BBX 10 18 2 -5
ATTRIBUTES 0240
BITMAP
c0c0
c0c0
c0c0
c0c0
c0c0
c0c0
c0c0
c0c0
c0c0
c0c0
c0c0
c0c0
c0c0
c0c0
00c0
00c0
00c0
00c0
ENDCHAR
STARTCHAR paragraph
ENCODING 182
SWIDTH 520 0
DWIDTH 13 0
BBX 13 23 0 -5
ATTRIBUTES 0218
BITMAP
0018
f838
f878
60f8
60f8
60f8
60f8
6078
6078
6038
6000
6000
6000
6000
6000
6000
6000
6000
6000
6000
6000
6000
6000
ENDCHAR
STARTCHAR periodcentered
ENCODING 183
SWIDTH 280 0
DWIDTH 7 0
BBX 2 2 2 8
ATTRIBUTES 0117
BITMAP
40
c0
ENDCHAR
STARTCHAR cedilla
ENCODING 184
SWIDTH 320 0
DWIDTH 8 0
BBX 5 5 2 -5
ATTRIBUTES 014c
BITMAP
c0
20
70
18
38
ENDCHAR
STARTCHAR onesuperior
ENCODING 185
SWIDTH 520 0
DWIDTH 13 0
BBX 12 12 0 0
ATTRIBUTES 01f7
BITMAP
f0f0
f080
1080
1080
1080
1080
1080
1080
1080
1080
1080
10f0
ENDCHAR
STARTCHAR masculine
ENCODING 186
SWIDTH 360 0
DWIDTH 9 0
BBX 8 9 1 9
ATTRIBUTES 016b
BITMAP
f0
18
7e
66
c3
c3
c3
66
7e
ENDCHAR
STARTCHAR guillemotright
ENCODING 187
SWIDTH 560 0
DWIDTH 14 0
BBX 10 11 2 1
ATTRIBUTES 022c
BITMAP
18c0
0040
0040
0000
8000
8000
c000
8000
8040
0040
00c0
ENDCHAR
STARTCHAR onequarter
ENCODING 188
SWIDTH 840 0
DWIDTH 21 0
BBX 19 19 1 -1
ATTRIBUTES 0343
BITMAP
001000
807000
00d000
009000
001000
001000
001020
001020
001060
0000c0
c00080
c00180
c00300
c00600
c00600
c00c00
e01800
c01800
c03000
ENDCHAR
STARTCHAR onehalf
ENCODING 189
SWIDTH 840 0
DWIDTH 21 0
BBX 19 19 1 -1
ATTRIBUTES 0343
BITMAP
001800
007800
00d800
009800
001800
001800
001820
001860
001860
0000c0
000180
c00180
600300
600600
c00c00
800c00
001800
003000
e03000
ENDCHAR
STARTCHAR threequarters
ENCODING 190
SWIDTH 840 0
DWIDTH 21 0
BBX 20 19 0 -1
ATTRIBUTES 0343
BITMAP
003c00
c06e00
802600
000e00
001c00
000600
000610
00c610
007c30
000060
600040
e000c0
e00180
e00300
600300
600600
f00c00
600800
601800
ENDCHAR
STARTCHAR questiondown
ENCODING 191
SWIDTH 600 0
DWIDTH 15 0
BBX 11 18 2 -5
ATTRIBUTES 0263
BITMAP
0000
0000
0000
0000
0000
0000
0000
0000
0000
0020
0060
00e0
00c0
00c0
60e0
e060
c060
c000
ENDCHAR
STARTCHAR Agrave
ENCODING 192
SWIDTH 680 0
DWIDTH 17 0
BBX 17 22 0 0
ATTRIBUTES 029b
BITMAP
000380
000180
000080
000000
000180
000380
000380
000300
000600
000600
000e00
000c00
000c00
001c00
001800
001f80
003f80
003000
007000
006000
006000
00e000
ENDCHAR
STARTCHAR Aacute
ENCODING 193
SWIDTH 680 0
DWIDTH 17 0
BBX 17 22 0 0
ATTRIBUTES 029b
BITMAP
800080
000080
000180
000000
000180
000380
000380
000300
000600
000600
000e00
000c00
000c00
001c00
001800
001f80
003f80
003000
007000
006000
006000
00e000
ENDCHAR
STARTCHAR Acircumflex
ENCODING 194
SWIDTH 680 0
DWIDTH 17 0
BBX 17 22 0 0
ATTRIBUTES 029b
BITMAP
800180
000300
000600
000000
000180
000380
000380
000300
000600
000600
000e00
000c00
000c00
001c00
001800
001f80
003f80
003000
007000
006000
006000
00e000
ENDCHAR
STARTCHAR Atilde
ENCODING 195
SWIDTH 680 0
DWIDTH 17 0
BBX 17 22 0 0
ATTRIBUTES 029b
BITMAP
800300
000780
000400
000000
000180
000380
000380
000300
000700
000600
000e00
000c00
000c00
001c00
001800
001f80
003f80
003000
007000
006000
006000
00e000
ENDCHAR
STARTCHAR Adiaeresis
ENCODING 196
SWIDTH 680 0
DWIDTH 17 0
BBX 17 21 0 0
ATTRIBUTES 029b
BITMAP
800600
000600
000000
000180
000380
000380
000300
000600
000600
000e00
000c00
000c00
001c00
001800
003f80
003f80
003000
007000
006000
006000
00e000
ENDCHAR
STARTCHAR Aring
ENCODING 197
SWIDTH 680 0
DWIDTH 17 0
BBX 17 22 0 0
ATTRIBUTES 029b
BITMAP
800080
000300
000200
000200
000180
000380
000380
000300
000600
000600
000e00
000c00
000c00
001c00
001800
001f80
003f80
003000
007000
006000
006000
00e000
ENDCHAR
STARTCHAR AE
ENCODING 198
SWIDTH 1000 0
DWIDTH 25 0
BBX 24 18 0 0
ATTRIBUTES 03e8
BITMAP
8000ff
ff00ff
ff00ce
0001ce
00018e
00038e
00030e
00070f
fe060f
fe0e0f
fe0c0e
001ffe
001ffe
00380e
00300e
00700e
00600f
ffe00f
ENDCHAR
STARTCHAR Ccedilla
ENCODING 199
SWIDTH 720 0
DWIDTH 18 0
BBX 16 23 1 -5
ATTRIBUTES 02d4
BITMAP
ff07
f01f
f83c
1c70
0e70
0660
04e0
00e0
00e0
00e0
00e0
0060
0060
0760
0630
0e38
1c1f
f807
e001
0003
c000
c001
c007
ENDCHAR
STARTCHAR Egrave
ENCODING 200
SWIDTH 680 0
DWIDTH 17 0
BBX 13 22 2 0
ATTRIBUTES 029b
BITMAP
8008
0000
0000
0000
00f8
f8f8
f8c0
00c0
00c0
00c0
00c0
00f8
f0f8
f0f8
f0c0
00c0
00c0
00c0
00c0
00c0
00f8
f8f8
ENDCHAR
STARTCHAR Eacute
ENCODING 201
SWIDTH 680 0
DWIDTH 17 0
BBX 13 22 2 0
ATTRIBUTES 029b
BITMAP
f800
8000
0000
0000
00f8
f8f8
f8c0
00c0
00c0
00c0
00c0
00f8
f0f8
f0f8
f0c0
00c0
00c0
00c0
00c0
00c0
00f8
f8f8
ENDCHAR
STARTCHAR Ecircumflex
ENCODING 202
SWIDTH 680 0
DWIDTH 17 0
BBX 13 22 2 0
ATTRIBUTES 029b
BITMAP
f800
0008
8018
c000
00f8
f8f8
f8c0
00c0
00c0
00c0
00c0
00f8
f0f8
f0f8
f0c0
00c0
00c0
00c0
00c0
00c0
00f8
f8f8
ENDCHAR
STARTCHAR Ediaeresis
ENCODING 203
SWIDTH 680 0
DWIDTH 17 0
BBX 14 21 2 0
ATTRIBUTES 029b
BITMAP
f80c
c00c
c000
00fc
f8fc
f8c0
00c0
00c0
00c0
00c0
00fc
f8fc
f8fc
f8c0
00c0
00c0
00c0
00c0
00c0
00fc
fcfc
ENDCHAR
STARTCHAR Igrave
ENCODING 204
SWIDTH 280 0
DWIDTH 7 0
BBX 4 22 1 0
ATTRIBUTES 0117
BITMAP
f0
60
60
30
00
70
70
70
70
70
70
70
70
70
70
70
70
70
70
70
70
70
ENDCHAR
STARTCHAR Iacute
ENCODING 205
SWIDTH 280 0
DWIDTH 7 0
BBX 4 22 2 0
ATTRIBUTES 0117
BITMAP
70
60
60
c0
00
60
60
60
60
60
60
60
60
60
60
60
60
60
60
60
60
60
ENDCHAR
STARTCHAR Icircumflex
ENCODING 206
SWIDTH 280 0
DWIDTH 7 0
BBX 7 22 0 0
ATTRIBUTES 0117
BITMAP
60
38
6c
ee
00
38
38
38
38
38
38
38
38
38
38
38
38
38
38
38
38
38
ENDCHAR
STARTCHAR Idiaeresis
ENCODING 207
SWIDTH 280 0
DWIDTH 7 0
BBX 6 21 0 0
ATTRIBUTES 0117
BITMAP
38
cc
cc
00
30
30
30
30
30
30
30
30
30
30
30
30
30
30
30
30
30
ENDCHAR
STARTCHAR ETH
ENCODING 208
SWIDTH 720 0
DWIDTH 18 0
BBX 16 18 0 0
ATTRIBUTES 02d4
BITMAP
303f
f03f
fc30
1c30
0e30
0730
0330
0330
03ff
83ff
8330
0330
0330
0730
0730
0e30
1c3f
f83f
ENDCHAR
STARTCHAR Ntilde
ENCODING 209
SWIDTH 720 0
DWIDTH 18 0
BBX 14 22 2 0
ATTRIBUTES 02d4
BITMAP
e004
200c
e008
c000
00e0
0ce0
0cf0
0cf8
0cd8
0cdc
0ccc
0cc4
0cc4
0cc0
8cc0
8cc0
ccc0
ecc0
6cc0
7cc0
3cc0
1cc0
ENDCHAR
STARTCHAR Ograve
ENCODING 210
SWIDTH 760 0
DWIDTH 19 0
BBX 17 22 1 0
ATTRIBUTES 030b
BITMAP
1c0380
000180
000080
000000
000380
000f80
003c00
003800
007000
006000
00e000
80e000
80e000
80c000
80e000
806000
806000
007000
003000
003c00
000f80
000380
ENDCHAR
STARTCHAR Oacute
ENCODING 211
SWIDTH 760 0
DWIDTH 19 0
BBX 17 22 1 0
ATTRIBUTES 030b
BITMAP
000080
000080
000180
000000
000380
000f80
003c00
003800
007000
006000
00e000
80e000
80e000
80c000
80e000
806000
806000
007000
003000
003c00
000f80
000380
ENDCHAR
STARTCHAR Ocircumflex
ENCODING 212
SWIDTH 760 0
DWIDTH 19 0
BBX 17 22 1 0
ATTRIBUTES 030b
BITMAP
000180
000300
000600
000000
000380
000f80
003c00
003800
007000
006000
00e000
80e000
80e000
80c000
80e000
806000
806000
007000
003000
003c00
000f80
000380
ENDCHAR
STARTCHAR Otilde
ENCODING 213
SWIDTH 760 0
DWIDTH 19 0
BBX 17 22 1 0
ATTRIBUTES 030b
BITMAP
000300
000780
000400
000000
000380
000f80
003c00
003800
007000
006000
00e000
80e000
80e000
80c000
80e000
806000
806000
007000
003000
003c00
000f80
000380
ENDCHAR
STARTCHAR Odiaeresis
ENCODING 214
SWIDTH 760 0
DWIDTH 19 0
BBX 17 21 1 0
ATTRIBUTES 030b
BITMAP
000300
000300
000000
000380
000f80
003c00
003800
007000
006000
006000
80e000
80e000
80e000
80e000
806000
806000
007000
003000
001c00
000f80
000380
ENDCHAR
STARTCHAR multiply
ENCODING 215
SWIDTH 600 0
DWIDTH 15 0
BBX 10 10 2 4
ATTRIBUTES 0247
BITMAP
0040
80c0
c040
8000
0000
0000
0000
0040
80c0
c0c0
ENDCHAR
STARTCHAR Ooblique
ENCODING 216
SWIDTH 760 0
DWIDTH 19 0
BBX 17 19 1 -1
ATTRIBUTES 030b
BITMAP
c00780
800f80
003c00
003000
007000
006000
00e000
00e000
80e080
80e180
80e300
80e600
006600
007c00
003800
003c00
007f80
00c780
004000
ENDCHAR
STARTCHAR Ugrave
ENCODING 217
SWIDTH 720 0
DWIDTH 18 0
BBX 14 22 2 0
ATTRIBUTES 02d4
BITMAP
0004
0004
0000
0000
00c0
0cc0
0cc0
0cc0
0cc0
0cc0
0cc0
0cc0
0cc0
0cc0
0cc0
0cc0
0ce0
1c60
1c60
1870
383c
f004
ENDCHAR
STARTCHAR Uacute
ENCODING 218
SWIDTH 720 0
DWIDTH 18 0
BBX 14 22 2 0
ATTRIBUTES 02d4
BITMAP
c000
8000
8000
0000
00c0
0cc0
0cc0
0cc0
0cc0
0cc0
0cc0
0cc0
0cc0
0cc0
0cc0
0cc0
0ce0
1c60
1c60
1870
383c
f004
ENDCHAR
STARTCHAR Ucircumflex
ENCODING 219
SWIDTH 720 0
DWIDTH 18 0
BBX 14 22 2 0
ATTRIBUTES 02d4
BITMAP
c004
800c
c00c
c000
00c0
0cc0
0cc0
0cc0
0cc0
0cc0
0cc0
0cc0
0cc0
0cc0
0cc0
0cc0
0ce0
1c60
1c60
1870
383c
f004
ENDCHAR
STARTCHAR Udiaeresis
ENCODING 220
SWIDTH 720 0
DWIDTH 18 0
BBX 14 21 2 0
ATTRIBUTES 02d4
BITMAP
c00c
c00c
c000
00c0
0cc0
0cc0
0cc0
0cc0
0cc0
0cc0
0cc0
0cc0
0cc0
0cc0
0cc0
1ce0
1ce0
1860
1870
383c
f004
ENDCHAR
STARTCHAR Yacute
ENCODING 221
SWIDTH 680 0
DWIDTH 17 0
BBX 16 22 0 0
ATTRIBUTES 029b
BITMAP
c000
c001
c001
8000
00e0
0770
0e30
0c38
1c1c
181c
300e
7006
6007
c003
c001
8001
8001
8001
8001
8001
8001
8001
ENDCHAR
STARTCHAR THORN
ENCODING 222
SWIDTH 680 0
DWIDTH 17 0
BBX 13 18 3 0
ATTRIBUTES 029b
BITMAP
80c0
00c0
00c0
00c0
00f8
c0f8
f0c0
78c0
38c0
18c0
18c0
38c0
70f8
f0f8
c0c0
00c0
00c0
00c0
ENDCHAR
STARTCHAR ssharp
ENCODING 223
SWIDTH 600 0
DWIDTH 15 0
BBX 12 18 2 0
ATTRIBUTES 0263
BITMAP
0030
0070
8060
80c0
80c0
80c0
80c0
00c0
00c0
00c0
00c0
c0c0
e0c0
60c0
30c0
30c0
70c0
e0c0
ENDCHAR
STARTCHAR agrave
ENCODING 224
SWIDTH 560 0
DWIDTH 14 0
BBX 11 18 2 0
ATTRIBUTES 022c
BITMAP
c000
0000
0000
0000
0000
0000
0060
c060
c0e0
c000
c000
c020
c060
c0c0
c0c0
c0e0
c060
e020
ENDCHAR
STARTCHAR aacute
ENCODING 225
SWIDTH 560 0
DWIDTH 14 0
BBX 11 18 2 0
ATTRIBUTES 022c
BITMAP
6000
0000
0000
0000
0000
0000
0060
c060
c0e0
c000
c000
c020
c060
c0c0
c0c0
c0e0
c060
e020
ENDCHAR
STARTCHAR acircumflex
ENCODING 226
SWIDTH 560 0
DWIDTH 14 0
BBX 11 18 2 0
ATTRIBUTES 022c
BITMAP
6000
0000
0000
0020
8000
0000
0060
c060
c0e0
c000
c000
c020
c060
c0c0
c0c0
c0e0
c060
e020
ENDCHAR
STARTCHAR atilde
ENCODING 227
SWIDTH 560 0
DWIDTH 14 0
BBX 11 18 2 0
ATTRIBUTES 022c
BITMAP
6000
8020
8020
8020
0000
0000
0060
c060
c0e0
c000
c000
c020
c060
c0c0
c0c0
c0e0
c060
e020
ENDCHAR
STARTCHAR adiaeresis
ENCODING 228
SWIDTH 560 0
DWIDTH 14 0
BBX 12 18 1 0
ATTRIBUTES 022c
BITMAP
6010
8010
8010
8010
8000
0010
8070
c060
e0e0
6000
6000
e030
e070
60e0
60c0
60e0
e070
e030
ENDCHAR
STARTCHAR aring
ENCODING 229
SWIDTH 560 0
DWIDTH 14 0
BBX 11 18 2 0
ATTRIBUTES 022c
BITMAP
7000
0000
0000
0000
0000
0000
0060
c060
c0e0
c000
c000
c020
c060
c0c0
c0c0
c0e0
c060
e020
ENDCHAR
STARTCHAR ae
ENCODING 230
SWIDTH 880 0
DWIDTH 22 0
BBX 20 13 1 0
ATTRIBUTES 0378
BITMAP
600e00
003fd0
c070f0
e0e0f0
600060
300ff0
f03f70
f07060
00e060
20c0e0
70e1f0
e07f10
c03c00
ENDCHAR
STARTCHAR ccedilla
ENCODING 231
SWIDTH 480 0
DWIDTH 12 0
BBX 10 18 1 -5
ATTRIBUTES 01f4
BITMAP
0000
0000
8040
80c0
c0c0
00c0
00c0
00c0
00c0
c0c0
c040
8000
8000
0000
0000
0000
0000
0000
ENDCHAR
STARTCHAR egrave
ENCODING 232
SWIDTH 560 0
DWIDTH 14 0
BBX 11 18 2 0
ATTRIBUTES 022c
BITMAP
0000
0000
0000
0000
0000
0000
0020
8060
c060
c0c0
60e0
e0e0
e0c0
00c0
0060
e060
c020
8000
ENDCHAR
STARTCHAR eacute
ENCODING 233
SWIDTH 560 0
DWIDTH 14 0
BBX 11 18 2 0
ATTRIBUTES 022c
BITMAP
0000
0000
0000
0000
0000
0000
0020
8060
c060
c0c0
60e0
e0e0
e0c0
00c0
0060
e060
c020
8000
ENDCHAR
STARTCHAR ecircumflex
ENCODING 234
SWIDTH 560 0
DWIDTH 14 0
BBX 11 18 2 0
ATTRIBUTES 022c
BITMAP
0000
0000
0000
0020
8000
0000
0020
8060
c060
c0c0
60e0
e0e0
e0c0
00c0
0060
e060
c020
8000
ENDCHAR
STARTCHAR ediaeresis
ENCODING 235
SWIDTH 560 0
DWIDTH 14 0
BBX 12 18 1 0
ATTRIBUTES 022c
BITMAP
0010
8010
8010
8010
8000
0000
0030
c070
e060
60c0
70f0
f0f0
f0c0
00e0
0060
7070
e030
c000
ENDCHAR
STARTCHAR igrave
ENCODING 236
SWIDTH 280 0
DWIDTH 7 0
BBX 4 18 1 0
ATTRIBUTES 0117
BITMAP
00
e0
60
20
30
00
30
30
30
30
30
30
30
30
30
30
30
30
ENDCHAR
STARTCHAR iacute
ENCODING 237
SWIDTH 280 0
DWIDTH 7 0
BBX 4 18 2 0
ATTRIBUTES 0117
BITMAP
30
70
60
60
c0
00
c0
c0
c0
c0
c0
c0
c0
c0
c0
c0
c0
c0
ENDCHAR
STARTCHAR icircumflex
ENCODING 238
SWIDTH 280 0
DWIDTH 7 0
BBX 7 18 0 0
ATTRIBUTES 0117
BITMAP
c0
38
6c
6c
00
00
10
10
10
10
10
10
10
10
10
10
10
10
ENDCHAR
STARTCHAR idiaeresis
ENCODING 239
SWIDTH 280 0
DWIDTH 7 0
BBX 6 18 1 0
ATTRIBUTES 0117
BITMAP
10
cc
cc
cc
00
00
30
30
30
30
30
30
30
30
30
30
30
30
ENDCHAR
STARTCHAR eth
ENCODING 240
SWIDTH 560 0
DWIDTH 14 0
BBX 11 18 2 0
ATTRIBUTES 022c
BITMAP
3000
8000
8000
0020
0000
8000
8020
c060
c060
c0c0
60c0
60c0
60c0
60c0
6060
c060
c020
8000
ENDCHAR
STARTCHAR ntilde
ENCODING 241
SWIDTH 560 0
DWIDTH 14 0
BBX 10 18 2 0
ATTRIBUTES 022c
BITMAP
0000
8000
8000
8040
0000
00c0
00c0
80c0
c0c0
c0c0
c0c0
c0c0
c0c0
c0c0
c0c0
c0c0
c0c0
c0c0
ENDCHAR
STARTCHAR ograve
ENCODING 242
SWIDTH 560 0
DWIDTH 14 0
BBX 11 18 2 0
ATTRIBUTES 022c
BITMAP
c000
0000
0000
0000
0000
0000
0020
8060
c0e0
e0c0
60c0
60c0
60c0
60c0
6060
c060
c020
8000
ENDCHAR
STARTCHAR oacute
ENCODING 243
SWIDTH 560 0
DWIDTH 14 0
BBX 11 18 2 0
ATTRIBUTES 022c
BITMAP
0000
0000
0000
0000
0000
0000
0020
8060
c0e0
e0c0
60c0
60c0
60c0
60c0
6060
c060
c020
8000
ENDCHAR
STARTCHAR ocircumflex
ENCODING 244
SWIDTH 560 0
DWIDTH 14 0
BBX 11 18 2 0
ATTRIBUTES 022c
BITMAP
0000
0000
0000
0020
8000
0000
0020
8060
c0e0
e0c0
60c0
60c0
60c0
60c0
6060
c060
c020
8000
ENDCHAR
STARTCHAR otilde
ENCODING 245
SWIDTH 560 0
DWIDTH 14 0
BBX 11 18 2 0
ATTRIBUTES 022c
BITMAP
0000
8020
8020
8020
0000
0000
0020
8060
c0e0
e0c0
60c0
60c0
60c0
60c0
6060
c060
c020
8000
ENDCHAR
STARTCHAR odiaeresis
ENCODING 246
SWIDTH 560 0
DWIDTH 14 0
BBX 12 18 1 0
ATTRIBUTES 022c
BITMAP
0010
8010
8010
8010
8000
0010
8030
c070
e0e0
70c0
30c0
30c0
30c0
30c0
30e0
6060
e030
c010
ENDCHAR
STARTCHAR division
ENCODING 247
SWIDTH 560 0
DWIDTH 14 0
BBX 11 9 2 4
ATTRIBUTES 0223
BITMAP
0000
0000
0000
00e0
e0e0
e000
0000
0000
0000
ENDCHAR
STARTCHAR oslash
ENCODING 248
SWIDTH 600 0
DWIDTH 15 0
BBX 11 14 3 -1
ATTRIBUTES 0263
BITMAP
0000
6020
c060
c0e0
c0c0
60c0
60c0
60c0
60c0
60e0
e060
c060
8040
0040
ENDCHAR
STARTCHAR ugrave
ENCODING 249
SWIDTH 560 0
DWIDTH 14 0
BBX 10 18 2 0
ATTRIBUTES 022c
BITMAP
0000
0000
0000
0000
0000
00c0
c0c0
c0c0
c0c0
c0c0
c0c0
c0c0
c0c0
c0c0
c0c0
c0c0
c040
c000
ENDCHAR
STARTCHAR uacute
ENCODING 250
SWIDTH 560 0
DWIDTH 14 0
BBX 10 18 2 0
ATTRIBUTES 022c
BITMAP
c000
0000
0000
0000
0000
00c0
c0c0
c0c0
c0c0
c0c0
c0c0
c0c0
c0c0
c0c0
c0c0
c0c0
c040
c000
ENDCHAR
STARTCHAR ucircumflex
ENCODING 251
SWIDTH 560 0
DWIDTH 14 0
BBX 10 18 2 0
ATTRIBUTES 022c
BITMAP
c000
0000
0000
0000
0000
00c0
c0c0
c0c0
c0c0
c0c0
c0c0
c0c0
c0c0
c0c0
c0c0
c0c0
c040
c000
ENDCHAR
STARTCHAR udiaeresis
ENCODING 252
SWIDTH 560 0
DWIDTH 14 0
BBX 10 18 2 0
ATTRIBUTES 022c
BITMAP
c000
0000
0000
0000
0000
00c0
c0c0
c0c0
c0c0
c0c0
c0c0
c0c0
c0c0
c0c0
c0c0
c0c0
c040
c000
ENDCHAR
STARTCHAR yacute
ENCODING 253
SWIDTH 480 0
DWIDTH 12 0
BBX 11 23 0 -5
ATTRIBUTES 01f4
BITMAP
c000
0000
0000
0000
0000
00c0
60e0
e060
c060
c020
8020
8020
8000
0000
0000
0000
0000
0000
0000
0000
0000
0060
0060
ENDCHAR
STARTCHAR thorn
ENCODING 254
SWIDTH 560 0
DWIDTH 14 0
BBX 10 23 3 -5
ATTRIBUTES 022c
BITMAP
00c0
00c0
00c0
00c0
00c0
00c0
00c0
00c0
80c0
c0c0
c0c0
c0c0
c0c0
c0c0
c0c0
80c0
80c0
00c0
00c0
00c0
00c0
00c0
00c0
ENDCHAR
STARTCHAR ydiaeresis
ENCODING 255
SWIDTH 480 0
DWIDTH 12 0
BBX 12 23 0 -5
ATTRIBUTES 01f4
BITMAP
0010
8010
8010
8000
0000
0060
7060
6060
6030
e030
c030
c010
8010
8010
8000
0000
0000
0000
0000
0000
0000
0070
0070
ENDCHAR
ENDFONT
